<svg width="40" height="39" viewBox="0 0 40 39" fill="none" xmlns="http://www.w3.org/2000/svg">
<path d="M36.5925 38.9777C25.5674 38.9777 14.5402 38.9777 3.51503 38.9777C3.35948 38.942 3.20393 38.9083 3.05048 38.8684C1.77876 38.5406 0.940048 37.4625 0.937946 36.1512C0.935844 34.2915 0.937946 32.4317 0.937946 30.5719C0.937946 21.5924 0.937946 12.6129 0.940048 3.63131C0.940048 3.40225 0.954762 3.16689 0.998905 2.94203C1.23433 1.69167 2.34841 0.748119 3.73995 0.748119C14.6158 0.741815 25.4896 0.743917 36.3655 0.748119C36.5463 0.748119 36.7292 0.769134 36.9036 0.80696C38.3288 1.11377 39.1696 2.16029 39.1696 3.61239C39.1696 14.4265 39.1696 25.2426 39.1675 36.0567C39.1675 36.2122 39.1549 36.3677 39.136 36.5232C39.0014 37.7 38.1123 38.6604 36.9457 38.8936C36.8301 38.9167 36.7123 38.9483 36.5925 38.9777ZM21.2877 17.5786C21.2814 17.4651 21.2751 17.4 21.2751 17.337C21.2751 16.6477 21.2688 15.9584 21.2772 15.2712C21.2793 15.0947 21.2288 15.0275 21.0438 15.0296C19.3706 15.0338 17.6995 15.0338 16.0263 15.0296C15.8434 15.0296 15.7909 15.0947 15.7909 15.2712C15.7951 21.2141 15.7951 27.157 15.7909 33.0999C15.7909 33.2849 15.8518 33.329 16.0284 33.3269C17.7584 33.3206 19.4862 33.3248 21.2162 33.3227C21.5273 33.3227 21.5 33.3605 21.5 33.0432C21.5126 29.8385 21.521 26.6338 21.5378 23.4291C21.542 22.7902 21.6597 22.164 21.8783 21.563C22.1999 20.6783 22.7759 20.0457 23.7029 19.7809C24.241 19.6275 24.7875 19.5792 25.3488 19.6401C26.3136 19.7473 27.0073 20.218 27.4025 21.107C27.7073 21.7962 27.8124 22.5359 27.8145 23.2778C27.8292 26.5455 27.8229 29.8154 27.8208 33.0852C27.8208 33.2701 27.8649 33.3311 28.0604 33.329C29.8198 33.3206 31.5813 33.3248 33.3407 33.3248C33.4122 33.3248 33.4836 33.3248 33.5677 33.3248C33.5677 33.2218 33.5677 33.1525 33.5677 33.0852C33.5677 29.8343 33.5698 26.5854 33.5656 23.3345C33.5656 22.8659 33.5425 22.3972 33.5299 21.9286C33.5089 21.0922 33.4101 20.2643 33.2251 19.4489C32.9392 18.188 32.4641 17.028 31.4846 16.1244C30.9948 15.6726 30.4441 15.3322 29.824 15.101C28.752 14.6996 27.64 14.5841 26.5028 14.6135C25.4329 14.6408 24.4323 14.893 23.5011 15.412C22.8179 15.7924 22.221 16.282 21.7522 16.9125C21.6009 17.1121 21.4642 17.3243 21.2877 17.5786ZM6.58189 33.3122C6.67228 33.3164 6.73954 33.3227 6.8068 33.3227C8.55359 33.3227 10.3025 33.3206 12.0493 33.3269C12.2405 33.3269 12.291 33.2743 12.291 33.0852C12.2868 27.1549 12.2868 21.2246 12.2868 15.2943C12.2868 15.0359 12.2805 15.0317 12.024 15.0317C10.2962 15.0317 8.5662 15.0317 6.83834 15.0317C6.58399 15.0317 6.58399 15.0317 6.58399 15.2901C6.58399 21.2204 6.58399 27.1507 6.58399 33.081C6.58189 33.1525 6.58189 33.2239 6.58189 33.3122ZM6.12995 9.2779C6.11314 11.1146 7.57194 12.615 9.43224 12.6024C11.3388 12.5898 12.7597 11.1398 12.7618 9.2716C12.7639 7.42653 11.2631 5.98283 9.44695 5.96392C7.63921 5.9471 6.09001 7.48326 6.12995 9.2779Z" fill="#111215"/>
</svg>
