<svg width="39" height="39" viewBox="0 0 39 39" fill="none" xmlns="http://www.w3.org/2000/svg">
<path d="M28.6853 38.9779C22.4613 38.9779 16.2395 38.9779 10.0155 38.9779C9.62483 38.9152 9.22996 38.8755 8.84344 38.7878C4.51237 37.8142 1.73363 35.1921 0.544837 30.9112C0.39023 30.3534 0.33382 29.7684 0.231445 29.1959C0.231445 22.972 0.231445 16.7501 0.231445 10.5261C0.294124 10.1354 0.33382 9.74057 0.421569 9.35405C1.39726 5.02298 4.0193 2.24633 8.30023 1.05753C8.85807 0.902926 9.44306 0.846515 10.0155 0.744141C16.2395 0.744141 22.4613 0.744141 28.6853 0.744141C29.076 0.806819 29.4709 0.846515 29.8574 0.934265C34.1885 1.90787 36.9672 4.52991 38.156 8.81084C38.3106 9.36868 38.367 9.95367 38.4694 10.5261C38.4694 16.7501 38.4694 22.972 38.4694 29.1959C38.4067 29.5866 38.367 29.9815 38.2793 30.368C37.3057 34.6991 34.6836 37.4778 30.4027 38.6666C29.8428 38.8191 29.2578 38.8755 28.6853 38.9779ZM19.3128 35.5891C22.0874 35.5891 24.8619 35.5912 27.6365 35.587C28.5098 35.587 29.3748 35.4993 30.2042 35.2026C33.2441 34.1203 35.0701 31.5046 35.0743 28.1951C35.0806 22.646 35.091 17.0948 35.0597 11.5457C35.0555 10.7016 34.9406 9.81787 34.6732 9.01977C33.6452 5.96106 30.996 4.13922 27.6908 4.13504C22.1291 4.12877 16.5675 4.11832 11.0038 4.14966C10.1701 4.15384 9.30099 4.26875 8.51543 4.532C5.47135 5.55157 3.63279 8.19032 3.62443 11.4705C3.60981 17.0697 3.61398 22.669 3.62443 28.2683C3.62861 30.7608 4.62519 32.7748 6.64343 34.252C7.94296 35.2026 9.42635 35.5912 11.0246 35.5891C13.7888 35.5849 16.5508 35.5891 19.3128 35.5891Z" fill="#111215"/>
<path d="M29.2032 19.8567C29.2094 25.2658 24.753 29.7202 19.346 29.7139C13.9285 29.7077 9.4804 25.2512 9.49712 19.8463C9.51592 14.4371 13.9264 10.0246 19.3355 10.0079C24.7384 9.99115 29.1969 14.4392 29.2032 19.8567ZM25.8039 19.8672C25.8144 16.3154 22.9207 13.4155 19.3564 13.4071C15.8026 13.3967 12.9068 16.2882 12.8964 19.8546C12.8859 23.4064 15.7775 26.3063 19.3439 26.3147C22.8957 26.3251 25.7935 23.4315 25.8039 19.8672Z" fill="#111215"/>
<path d="M29.6715 7.14753C31.04 7.18723 32.1452 8.32797 32.1055 9.65675C32.0616 11.0587 30.9146 12.143 29.5253 12.097C28.1902 12.0511 27.0913 10.8999 27.1289 9.58363C27.1665 8.20053 28.3072 7.10784 29.6715 7.14753Z" fill="#111215"/>
</svg>
