<svg width="39" height="39" viewBox="0 0 39 39" fill="none" xmlns="http://www.w3.org/2000/svg">
<path d="M17.9182 0.746094C18.7197 0.746094 19.5212 0.746094 20.3227 0.746094C20.4171 0.7713 20.5094 0.811211 20.6059 0.817512C22.8992 0.981355 25.075 1.57791 27.1647 2.52946C35.8279 6.47639 40.2927 16.6767 37.3049 25.7153C34.8124 33.2563 28.3124 38.3648 20.4024 38.9236C15.3522 39.2807 10.8287 37.8187 6.94713 34.5796C-0.354361 28.4902 -2.13148 18.3025 2.7194 10.1145C5.63999 5.18455 10.0062 2.18707 15.6397 1.08218C16.3908 0.937244 17.1566 0.857423 17.9182 0.746094ZM6.49813 11.566C6.49813 16.9056 6.49813 22.1822 6.49813 27.484C6.61982 27.4924 6.71633 27.5029 6.81494 27.5029C9.50474 27.5029 12.1924 27.5071 14.8822 27.4987C15.2515 27.4966 15.6271 27.4609 15.988 27.3853C17.8511 26.9967 19.2422 26.0409 19.666 24.0748C19.8045 23.4278 19.8108 22.7367 19.7814 22.0709C19.7478 21.3084 19.5275 20.5753 19.0764 19.9388C18.6169 19.2876 17.9728 18.9474 17.0853 18.8465C17.2762 18.7688 17.3643 18.731 17.4546 18.6974C18.1071 18.4453 18.6148 18.0294 18.9295 17.395C19.7583 15.7272 19.0785 13.2822 17.507 12.2865C16.6573 11.7488 15.7152 11.566 14.7228 11.5681C12.1043 11.5723 9.48796 11.5702 6.8695 11.5681C6.75829 11.566 6.64709 11.566 6.49813 11.566ZM23.8979 22.5435C24.0574 22.5435 24.2252 22.5435 24.391 22.5435C26.8227 22.5435 29.2565 22.5351 31.6883 22.5519C32.0512 22.554 32.1834 22.4343 32.1561 22.0898C32.0995 21.3777 32.1163 20.6509 31.9799 19.9556C31.5771 17.8866 30.486 16.3616 28.3438 15.8469C27.6179 15.6726 26.8395 15.6117 26.0925 15.6432C24.0469 15.7293 22.3789 16.559 21.3613 18.4117C20.3877 20.1846 20.1611 22.0688 20.7591 24.016C21.334 25.8855 22.5719 27.0933 24.4749 27.5848C25.7275 27.9104 26.9947 27.9272 28.262 27.7045C29.1432 27.5491 29.9741 27.2445 30.677 26.6627C31.6232 25.8792 32.0135 24.8562 32.0051 23.6232C31.8792 23.6169 31.7974 23.6085 31.7134 23.6085C30.8994 23.6085 30.0853 23.6085 29.2817 23.6085C28.7425 25.0684 27.5696 25.6166 25.8408 25.2385C24.5777 24.9612 23.772 23.8731 23.8979 22.5435ZM29.674 14.4396C29.674 13.7779 29.674 13.1582 29.674 12.5281C27.492 12.5281 25.3414 12.5281 23.1699 12.5281C23.1699 13.1729 23.1699 13.7926 23.1699 14.4396C25.3393 14.4396 27.4899 14.4396 29.674 14.4396Z" fill="#111215"/>
<path d="M10.1338 24.6456C10.1338 23.2277 10.1338 21.8476 10.1338 20.4466C10.266 20.4361 10.3751 20.4214 10.4863 20.4214C11.871 20.4193 13.2579 20.4172 14.6427 20.4214C15.4546 20.4235 16.0316 20.8436 16.2834 21.6103C16.4806 22.2089 16.4953 22.8202 16.3275 23.4273C16.1323 24.1351 15.6204 24.6162 14.8839 24.633C13.3166 24.6729 11.7452 24.6456 10.1338 24.6456Z" fill="#111215"/>
<path d="M10.1318 17.9304C10.1318 16.7352 10.1318 15.5946 10.1318 14.3994C10.5179 14.3994 10.8851 14.3994 11.2501 14.3994C12.337 14.3994 13.4217 14.3973 14.5085 14.3994C15.2534 14.4015 15.7233 14.7334 15.8136 15.4749C15.8786 16.0021 15.8283 16.5587 15.7401 17.0881C15.6604 17.5607 15.3163 17.9094 14.8233 17.9199C13.2706 17.9493 11.7159 17.9304 10.1318 17.9304Z" fill="#111215"/>
<path d="M29.0397 20.3964C27.3067 20.3964 25.5967 20.3964 23.8867 20.3964C23.8867 19.1277 25.133 17.9829 26.5451 17.9493C28.0242 17.9135 28.9684 18.821 29.0397 20.3964Z" fill="#111215"/>
</svg>
