<svg width="39" height="39" viewBox="0 0 39 39" fill="none" xmlns="http://www.w3.org/2000/svg">
<path d="M19.82 0.765625C30.3691 0.76354 38.9306 9.30628 38.9369 19.8387C38.9431 30.3983 30.3775 38.9618 19.8117 38.9556C9.28549 38.9514 0.703125 30.3732 0.703125 19.8554C0.703125 9.33965 9.28549 0.767711 19.82 0.765625ZM20.21 36.1984C20.6793 36.2276 21.5302 36.1129 22.3791 35.9898C23.5637 35.8188 24.7025 35.4726 25.8245 35.0638C26.1374 34.9491 26.2187 34.7802 26.1374 34.4444C25.9351 33.6122 25.7912 32.7675 25.5993 31.9333C24.9006 28.8924 23.9892 25.9183 22.9047 22.9922C22.7461 22.5625 22.548 22.5688 22.1976 22.7064C20.5959 23.3363 19.0212 24.0225 17.555 24.9318C14.51 26.8193 11.9238 29.1677 10.0593 32.2691C9.81524 32.6758 9.87364 32.8426 10.2199 33.0887C13.098 35.1201 16.289 36.1734 20.21 36.1984ZM3.48118 20.1912C3.47284 20.1912 3.46658 20.1933 3.45824 20.1933C3.53332 20.9503 3.56461 21.7179 3.69392 22.4666C4.18196 25.2947 5.29151 27.8517 7.10392 30.0937C7.65453 30.7737 7.63784 30.7778 8.12797 30.075C9.66508 27.8705 11.4274 25.8745 13.5193 24.1706C15.8177 22.2998 18.3455 20.8565 21.1778 19.9701C21.524 19.8617 21.6032 19.749 21.4426 19.4278C21.1152 18.7709 20.8023 18.1097 20.4978 17.4423C20.3685 17.1566 20.2079 17.0961 19.8951 17.1837C16.6165 18.0951 13.2857 18.7292 9.8945 19.0629C7.99449 19.2506 6.09239 19.3361 4.18821 19.4153C3.40193 19.4487 3.48953 19.3236 3.48327 20.1453C3.48118 20.1578 3.48118 20.1745 3.48118 20.1912ZM5.00995 16.5455C5.32697 16.5747 5.75452 16.4767 6.17999 16.4662C8.00909 16.4287 9.8215 16.2118 11.6339 15.9803C13.9677 15.682 16.2682 15.2253 18.5499 14.6538C18.8877 14.5683 18.8898 14.4599 18.7417 14.2096C18.2558 13.3879 17.7928 12.5515 17.2901 11.7402C16.0075 9.66918 14.6748 7.63152 13.269 5.64183C12.9979 5.25599 12.8019 5.14545 12.3347 5.39781C10.4764 6.39683 8.82874 7.64403 7.46265 9.25831C5.89634 11.1062 4.72839 13.1647 4.09853 15.5152C3.81697 16.5476 3.82114 16.5476 5.00995 16.5455ZM19.4509 3.6C18.6813 3.5416 17.5654 3.71471 16.4538 3.91284C16.1535 3.96707 15.9783 4.03589 16.2536 4.38002C16.6707 4.90143 17.044 5.45621 17.4215 6.00681C19.015 8.33229 20.5312 10.7078 21.8723 13.1897C22.012 13.4483 22.1267 13.5797 22.4896 13.4296C25.3699 12.2491 27.9852 10.687 30.1042 8.36566C30.6861 7.72746 30.7028 7.6628 30.0292 7.13931C27.0259 4.80966 23.6409 3.57497 19.4509 3.6ZM28.5108 18.9356C28.8967 18.9106 29.2742 19.0274 29.6517 19.0232C31.7269 19.0045 33.7687 19.311 35.8043 19.6552C36.1421 19.7115 36.1338 19.578 36.1484 19.3423C36.1859 18.7813 36.1088 18.2223 36.0253 17.6801C35.5978 14.8645 34.5821 12.2825 32.8218 10.0175C32.4819 9.58158 32.4443 9.57324 32.1106 10.0071C31.5058 10.7975 30.7591 11.4503 30 12.0781C28.0833 13.6569 25.9684 14.9166 23.6701 15.8635C23.4281 15.9636 23.3927 16.0595 23.4991 16.2869C23.8786 17.1107 24.252 17.9387 24.6024 18.775C24.7296 19.0816 24.9152 19.1651 25.228 19.1421C26.3209 19.0629 27.4159 19.0024 28.5108 18.9356ZM28.8049 21.5197C28.248 21.503 27.2991 21.5614 26.3543 21.7116C25.8204 21.795 25.8099 21.7929 25.9851 22.3331C26.3689 23.5136 26.7672 24.6878 27.1322 25.8724C27.8455 28.1958 28.442 30.5484 28.8654 32.9427C28.9321 33.3181 29.0885 33.3515 29.3701 33.1304C30.3962 32.3233 31.3869 31.489 32.2358 30.4817C34.1107 28.2542 35.3371 25.7348 35.8835 22.8733C35.9503 22.525 35.871 22.4478 35.5561 22.3623C33.4746 21.7971 31.3577 21.5197 28.8049 21.5197Z" fill="#111215"/>
</svg>
