<svg width="264" height="261" viewBox="0 0 264 261" fill="none" xmlns="http://www.w3.org/2000/svg">
<path fill-rule="evenodd" clip-rule="evenodd" d="M0.333008 100.093C0.333008 155.292 44.7877 200.141 99.5013 200.141C154.215 200.141 198.67 155.292 198.67 100.093C198.67 44.8941 154.215 0.0449219 99.5013 0.0449219C44.7877 0.0449219 0.333008 44.8941 0.333008 100.093ZM25.2051 99.7792C25.2051 58.3799 58.4684 24.8214 99.5035 24.8214C140.539 24.8214 173.802 58.3799 173.802 99.7792C173.802 141.178 140.539 174.737 99.5035 174.737C58.4684 174.737 25.2051 141.178 25.2051 99.7792Z" fill="#F2F7FC"/>
<path fill-rule="evenodd" clip-rule="evenodd" d="M64.9961 159.996C64.9961 215.196 109.451 260.045 164.164 260.045C218.878 260.045 263.333 215.196 263.333 159.996C263.333 104.797 218.878 59.9482 164.164 59.9482C109.451 59.9482 64.9961 104.797 64.9961 159.996ZM89.8682 159.683C89.8682 118.283 123.131 84.7249 164.167 84.7249C205.202 84.7249 238.465 118.283 238.465 159.683C238.465 201.082 205.202 234.64 164.167 234.64C123.131 234.64 89.8682 201.082 89.8682 159.683Z" fill="#FBC3CD"/>
<path d="M99.5013 200.141C44.7877 200.141 0.333008 155.292 0.333008 100.093C0.333008 44.8941 44.7877 0.0449219 99.5013 0.0449219C120.019 0.0449219 139.915 6.31754 156.702 18.2355L142.402 38.6215C129.967 29.5262 115.045 24.8218 99.5013 24.8218C58.4661 24.8218 25.2028 58.3803 25.2028 99.7795C25.2028 141.179 58.4661 174.737 99.5013 174.737C125.925 174.737 149.863 160.938 163.23 138.356L184.68 151.215C166.961 181.324 134.319 200.141 99.5013 200.141Z" fill="#F2F7FC"/>
</svg>
